<svg width="18" height="16" viewBox="0 0 18 16" fill="none" xmlns="http://www.w3.org/2000/svg">
<path d="M9 1.3064C4.65117 1.3064 1.125 4.30364 1.125 8.00015C1.125 11.6967 4.65117 14.6939 9 14.6939C13.3488 14.6939 16.875 11.6967 16.875 8.00015C16.875 4.30364 13.3488 1.3064 9 1.3064ZM12.4014 5.81422L8.69941 10.1771C8.64767 10.2385 8.57946 10.2885 8.50044 10.323C8.42142 10.3575 8.33386 10.3755 8.24502 10.3755C8.15618 10.3755 8.06862 10.3575 7.9896 10.323C7.91057 10.2885 7.84237 10.2385 7.79063 10.1771L5.59863 7.59523C5.53184 7.51604 5.59863 7.40548 5.71289 7.40548H6.5373C6.7166 7.40548 6.88711 7.47869 6.99258 7.6042L8.24414 9.08041L11.0074 5.82318C11.1129 5.69917 11.2816 5.62446 11.4627 5.62446H12.2871C12.4014 5.62446 12.4682 5.73503 12.4014 5.81422V5.81422Z" fill="#653CAD"/>
</svg>
